<?xml version="1.0" encoding="UTF-8" standalone="no"?>
<!-- Created with Inkscape (http://www.inkscape.org/) -->

<svg
   xmlns:dc="http://purl.org/dc/elements/1.1/"
   xmlns:cc="http://creativecommons.org/ns#"
   xmlns:rdf="http://www.w3.org/1999/02/22-rdf-syntax-ns#"
   xmlns:svg="http://www.w3.org/2000/svg"
   xmlns="http://www.w3.org/2000/svg"
   xmlns:sodipodi="http://sodipodi.sourceforge.net/DTD/sodipodi-0.dtd"
   xmlns:inkscape="http://www.inkscape.org/namespaces/inkscape"
   version="1.1"
   id="svg274"
   xml:space="preserve"
   width="260.93753"
   height="116.80501"
   viewBox="0 0 260.93753 116.80501"
   sodipodi:docname="ethicalads-from-rtd.svg"
   inkscape:version="0.92.5 (2060ec1f9f, 2020-04-08)"><metadata
     id="metadata280"><rdf:RDF><cc:Work
         rdf:about=""><dc:format>image/svg+xml</dc:format><dc:type
           rdf:resource="http://purl.org/dc/dcmitype/StillImage" /><dc:title></dc:title></cc:Work></rdf:RDF></metadata><defs
     id="defs278"><clipPath
       clipPathUnits="userSpaceOnUse"
       id="clipPath294"><path
         d="M 0,288 H 288 V 0 H 0 Z"
         id="path292"
         inkscape:connector-curvature="0" /></clipPath><clipPath
       clipPathUnits="userSpaceOnUse"
       id="clipPath346"><path
         d="m 157.893,146.911 h 6.015 v -0.5 h -6.015 z"
         id="path344"
         inkscape:connector-curvature="0" /></clipPath><clipPath
       clipPathUnits="userSpaceOnUse"
       id="clipPath362"><path
         d="m 157.893,143.714 h 6.015 v -0.5 h -6.015 z"
         id="path360"
         inkscape:connector-curvature="0" /></clipPath><clipPath
       clipPathUnits="userSpaceOnUse"
       id="clipPath378"><path
         d="m 157.893,140.51 h 6.015 v -0.5 h -6.015 z"
         id="path376"
         inkscape:connector-curvature="0" /></clipPath></defs><sodipodi:namedview
     pagecolor="#ffffff"
     bordercolor="#666666"
     borderopacity="1"
     objecttolerance="10"
     gridtolerance="10"
     guidetolerance="10"
     inkscape:pageopacity="0"
     inkscape:pageshadow="2"
     inkscape:window-width="3728"
     inkscape:window-height="2032"
     id="namedview276"
     showgrid="false"
     fit-margin-top="0"
     fit-margin-left="0"
     fit-margin-right="0"
     fit-margin-bottom="0"
     inkscape:zoom="6.7198854"
     inkscape:cx="128.94353"
     inkscape:cy="70.415149"
     inkscape:window-x="112"
     inkscape:window-y="54"
     inkscape:window-maximized="1"
     inkscape:current-layer="g282" /><g
     id="g282"
     inkscape:groupmode="layer"
     inkscape:label="EthicalAds_Stickers_Final_noCircle"
     transform="matrix(1.3333333,0,0,-1.3333333,-62.414599,238.38986)"><g
       id="g284"
       transform="translate(190.6841,146.7168)"><path
         d="M 0,0 -6.39,-12.983 H 6.196 Z m -1.201,2.409 h 2.634 l 11.54,-23.691 h -2.865 l -2.983,6.291 H -7.397 l -3.098,-6.291 h -2.672 z"
         style="fill:#100f0d;fill-opacity:1;fill-rule:nonzero;stroke:none"
         id="path286"
         inkscape:connector-curvature="0" /></g><g
       id="g288"><g
         id="g290"
         clip-path="url(#clipPath294)"><g
           id="g296"
           transform="translate(215.3525,139.4893)"><path
             d="m 0,0 c -4.376,0 -7.087,-2.845 -7.087,-6.324 0,-3.481 2.711,-6.325 7.087,-6.325 4.222,0 7.475,2.844 7.475,6.325 C 7.475,-2.845 4.222,0 0,0 M 7.242,-11.344 H 7.165 C 5.731,-13.486 2.672,-14.456 0,-14.456 c -5.499,0 -9.41,3.413 -9.41,8.132 0,4.718 3.911,8.131 9.41,8.131 2.672,0 5.731,-0.971 7.165,-3.113 H 7.242 V 11.243 H 9.565 V -14.055 H 7.242 Z"
             style="fill:#100f0d;fill-opacity:1;fill-rule:nonzero;stroke:none"
             id="path298"
             inkscape:connector-curvature="0" /></g><g
           id="g300"
           transform="translate(230.6494,129.3838)"><path
             d="m 0,0 c 0.968,-1.641 3.098,-2.544 5.189,-2.544 2.014,0 4.105,1.071 4.105,2.845 0,4.25 -10.611,1.271 -10.611,7.16 0,3.012 3.176,4.451 6.119,4.451 2.905,0 5.151,-0.937 6.312,-2.911 L 9.023,7.93 c -0.891,1.406 -2.13,2.175 -4.221,2.175 -1.665,0 -3.795,-0.871 -3.795,-2.476 0,-4.184 10.611,-0.938 10.611,-7.194 0,-3.179 -3.059,-4.786 -6.468,-4.786 -3.059,0 -5.808,1.004 -7.203,3.146 z"
             style="fill:#100f0d;fill-opacity:1;fill-rule:nonzero;stroke:none"
             id="path302"
             inkscape:connector-curvature="0" /></g><g
           id="g304"
           transform="translate(47.0107,149.126)"><path
             d="M 0,0 H 18.627 V -4.818 H 6.041 v -4.417 h 11.89 v -4.82 H 6.041 v -4.818 h 13.284 v -4.818 H 0 Z"
             style="fill:#100f0d;fill-opacity:1;fill-rule:nonzero;stroke:none"
             id="path306"
             inkscape:connector-curvature="0" /></g><g
           id="g308"
           transform="translate(83.2583,137.6816)"><path
             d="m 0,0 h -5.112 v -5.421 c 0,-1.74 0.233,-3.012 2.75,-3.012 0.619,0 1.859,0.068 2.362,0.469 v -4.182 c -1.278,-0.402 -2.711,-0.502 -4.066,-0.502 -3.873,0 -6.855,1.372 -6.855,4.919 V 0 h -3.718 v 4.016 h 3.718 v 4.819 h 5.809 V 4.016 H 0 Z"
             style="fill:#100f0d;fill-opacity:1;fill-rule:nonzero;stroke:none"
             id="path310"
             inkscape:connector-curvature="0" /></g><g
           id="g312"
           transform="translate(92.0103,150.7324)"><path
             d="m 0,0 v -11.243 h 0.078 c 0.542,1.271 2.439,2.609 5.266,2.609 5.887,0 6.971,-3.345 6.971,-7.696 v -8.968 H 6.506 v 7.964 c 0,1.874 -0.039,4.283 -3.021,4.283 C 0.464,-13.051 0,-15.092 0,-17.2 v -8.098 H -5.809 V 0 Z"
             style="fill:#100f0d;fill-opacity:1;fill-rule:nonzero;stroke:none"
             id="path314"
             inkscape:connector-curvature="0" /></g><path
           d="m 108.507,141.697 h 5.81 v -16.263 h -5.81 z m 2.905,8.032 c 1.859,0 3.369,-1.306 3.369,-2.912 0,-1.606 -1.51,-2.912 -3.369,-2.912 -1.859,0 -3.37,1.306 -3.37,2.912 0,1.606 1.511,2.912 3.37,2.912"
           style="fill:#100f0d;fill-opacity:1;fill-rule:nonzero;stroke:none"
           id="path316"
           inkscape:connector-curvature="0" /><g
           id="g318"
           transform="translate(131.2393,136.4443)"><path
             d="m 0,0 c -0.581,0.702 -1.665,1.237 -2.866,1.237 -2.904,0 -4.647,-1.673 -4.647,-4.116 0,-2.442 1.743,-4.115 4.647,-4.115 1.278,0 2.208,0.568 2.866,1.238 l 3.834,-3.48 c -1.82,-1.606 -4.492,-2.175 -6.7,-2.175 -5.809,0 -10.456,3.347 -10.456,8.532 0,5.188 4.647,8.533 10.456,8.533 2.208,0 4.88,-0.568 6.7,-2.175 z"
             style="fill:#100f0d;fill-opacity:1;fill-rule:nonzero;stroke:none"
             id="path320"
             inkscape:connector-curvature="0" /></g><g
           id="g322"
           transform="translate(147.543,132.5615)"><path
             d="m 0,0 c -1.781,0 -5.731,-0.133 -5.731,-2.342 0,-1.205 1.471,-1.773 2.749,-1.773 2.285,0 4.415,1.037 4.415,3.045 V 0 Z M 1.433,-5.086 H 1.355 c -1.277,-1.74 -3.601,-2.442 -5.963,-2.442 -3.525,0 -6.7,1.739 -6.7,5.018 0,5.623 7.9,5.723 12.741,5.723 0,1.773 -1.704,2.911 -3.718,2.911 -1.898,0 -3.485,-0.735 -4.724,-1.94 l -3.098,2.744 c 2.129,1.74 5.228,2.609 8.287,2.609 6.777,0 8.597,-2.978 8.597,-8.398 V -7.127 H 1.433 Z"
             style="fill:#100f0d;fill-opacity:1;fill-rule:nonzero;stroke:none"
             id="path324"
             inkscape:connector-curvature="0" /></g><path
           d="m 158.037,150.732 h 5.81 v -25.298 h -5.81 z"
           style="fill:#100f0d;fill-opacity:1;fill-rule:nonzero;stroke:none"
           id="path326"
           inkscape:connector-curvature="0" /><g
           id="g328"
           transform="translate(170.2324,136.3984)"><path
             d="m 0,0 c 6.265,7.043 5.813,15.815 5.808,15.888 0,3.244 -2.64,5.883 -5.884,5.883 -1.839,0 -3.482,-0.848 -4.562,-2.173 v 7.997 c 1.853,-3.089 5.443,-5.357 8.85,-6.004 l 0.302,-0.011 0.059,0.011 c 3.407,0.647 6.996,2.915 8.849,6.003 V 23.032 C 13.427,22.875 13.663,8.924 0,0 M -1.707,20.135 C 0.026,19.449 1.182,17.782 1.183,15.861 1.188,15.77 1.636,7.187 -4.638,0.509 V 2.98 c 3.921,6.286 3.575,12.677 3.559,12.908 0,1.421 -0.52,2.779 -1.436,3.841 0.254,0.162 0.524,0.296 0.808,0.406 M -4.638,-2.362 v 1.004 c 7.669,7.195 7.166,16.888 7.142,17.26 0,1.78 -0.809,3.405 -2.115,4.5 C 2.683,20.165 4.485,18.241 4.487,15.846 4.494,15.729 5.086,4.412 -4.638,-2.362 m 0,18.25 c 0,1.133 0.431,2.158 1.117,2.957 0.706,-0.824 1.12,-1.866 1.121,-2.998 0.004,-0.055 0.262,-4.912 -2.238,-10.131 v 6.858 z m 3.488,20.489 c 1.006,0.079 1.824,-0.194 2.511,-0.835 1.792,-1.671 2.095,-5.275 2.146,-6.517 -0.162,-1.332 -0.833,-1.447 -1.03,-1.448 l -1.399,0.117 3.101,-4.458 2.298,3.306 0.677,1.036 H 5.89 c -0.207,0 -0.879,0.115 -1.04,1.449 0.05,1.242 0.35,4.838 2.144,6.514 0.687,0.641 1.505,0.915 2.512,0.836 1.009,-0.078 1.932,-0.048 2.773,0.05 0.725,-1.3 1.143,-2.794 1.143,-4.385 v -0.08 l -0.011,-0.001 c 0,-4.538 -4.669,-8.242 -9.018,-9.094 -4.35,0.852 -9.019,4.556 -9.019,9.094 h -0.012 v 0.081 c 0,1.575 0.408,3.057 1.12,4.347 0.732,-0.063 1.517,-0.077 2.368,-0.012 m 5.332,-9.241 c 0.202,-0.258 0.437,-0.452 0.687,-0.592 l -0.69,-0.993 -0.683,0.981 c 0.247,0.141 0.483,0.339 0.686,0.604 m 0.21,13.935 c 2.847,0 5.387,-1.328 7.043,-3.392 -0.571,-0.035 -1.179,-0.034 -1.826,0.016 -1.375,0.1 -2.558,-0.293 -3.517,-1.188 -0.94,-0.878 -1.534,-2.131 -1.913,-3.383 -0.38,1.252 -0.974,2.505 -1.914,3.383 -0.96,0.895 -2.143,1.289 -3.517,1.188 -0.494,-0.038 -0.958,-0.041 -1.408,-0.028 1.656,2.071 4.199,3.404 7.052,3.404 m 10.352,-9.029 c 0,1.66 -0.402,3.225 -1.1,4.617 3.027,0.682 4.649,2.204 4.741,2.293 l -0.919,0.95 c -0.02,-0.019 -1.587,-1.482 -4.522,-2.038 -1.865,2.732 -5.002,4.53 -8.552,4.53 -3.577,0 -6.734,-1.824 -8.594,-4.589 -3.181,0.495 -4.886,2.078 -4.908,2.097 l -0.458,-0.475 -0.461,-0.475 c 0.095,-0.093 1.845,-1.749 5.128,-2.379 C -5.572,35.202 -5.96,33.668 -5.96,32.042 V 15.888 12.574 11.828 h -6.735 V 10.506 H -5.96 V 8.64 h -6.735 V 7.317 H -5.96 V 5.452 h -6.735 V 4.13 h 6.735 v -8.903 l 0.974,0.603 c 20.062,8.694 19.736,27.059 19.73,27.223 z"
             style="fill:#100f0d;fill-opacity:1;fill-rule:nonzero;stroke:none"
             id="path330"
             inkscape:connector-curvature="0" /></g><g
           id="g332"
           transform="translate(169.5879,169.999)"><path
             d="m 0,0 c 0.789,0 1.431,-0.642 1.431,-1.431 0,-0.789 -0.642,-1.43 -1.431,-1.43 -0.79,0 -1.432,0.641 -1.432,1.43 C -1.432,-0.642 -0.79,0 0,0 m 0,-4.184 c 1.518,0 2.753,1.236 2.753,2.753 0,1.518 -1.235,2.753 -2.753,2.753 -1.519,0 -2.754,-1.235 -2.754,-2.753 0,-1.517 1.235,-2.753 2.754,-2.753"
             style="fill:#100f0d;fill-opacity:1;fill-rule:nonzero;stroke:none"
             id="path334"
             inkscape:connector-curvature="0" /></g><g
           id="g336"
           transform="translate(179.6621,169.999)"><path
             d="m 0,0 c 0.789,0 1.431,-0.642 1.431,-1.431 0,-0.789 -0.642,-1.43 -1.431,-1.43 -0.789,0 -1.431,0.641 -1.431,1.43 C -1.431,-0.642 -0.789,0 0,0 m 0,-4.184 c 1.518,0 2.753,1.236 2.753,2.753 0,1.518 -1.235,2.753 -2.753,2.753 -1.518,0 -2.753,-1.235 -2.753,-2.753 0,-1.517 1.235,-2.753 2.753,-2.753"
             style="fill:#100f0d;fill-opacity:1;fill-rule:nonzero;stroke:none"
             id="path338"
             inkscape:connector-curvature="0" /></g><g
           id="g340"><g
             id="g342" /><g
             id="g354"><g
               clip-path="url(#clipPath346)"
               id="g352"><g
                 transform="translate(163.9082,146.4111)"
                 id="g350"><path
                   d="M 0,0 -6.016,0.5 H 0 Z"
                   style="fill:#100f0d;fill-opacity:1;fill-rule:nonzero;stroke:none"
                   id="path348"
                   inkscape:connector-curvature="0" /></g></g></g></g><g
           id="g356"><g
             id="g358" /><g
             id="g370"><g
               clip-path="url(#clipPath362)"
               id="g368"><g
                 transform="translate(163.9082,143.2139)"
                 id="g366"><path
                   d="M 0,0 -6.016,0.5 H 0 Z"
                   style="fill:#100f0d;fill-opacity:1;fill-rule:nonzero;stroke:none"
                   id="path364"
                   inkscape:connector-curvature="0" /></g></g></g></g><g
           id="g372"><g
             id="g374" /><g
             id="g386"><g
               clip-path="url(#clipPath378)"
               id="g384"><g
                 transform="translate(163.9082,140.0098)"
                 id="g382"><path
                   d="M 0,0 -6.016,0.5 H 0 Z"
                   style="fill:#100f0d;fill-opacity:1;fill-rule:nonzero;stroke:none"
                   id="path380"
                   inkscape:connector-curvature="0" /></g></g></g></g></g></g><g
       id="g4257"
       transform="translate(0,-2.888411)"
       style="fill:#000000"><g
         style="fill:#000000;fill-opacity:1"
         id="g3857"
         transform="matrix(0.33905584,0,0,-0.33905584,137.63006,91.797883)"><path
           inkscape:connector-curvature="0"
           d="M -67.28125,-41.59375 A 1.6144056,1.6144056 0 0 0 -67.5,-38.4375 c 0,0 3.931695,1.301049 10.625,1.84375 5.374689,0.435786 11.46875,-0.375 11.46875,-0.375 a 1.6144056,1.6144056 0 1 0 -0.40625,-3.1875 c 0,0 -5.961605,0.737066 -10.8125,0.34375 C -63.013171,-40.330461 -66.5,-41.5 -66.5,-41.5 a 1.6144056,1.6144056 0 0 0 -0.78125,-0.09375 z m 0,-8 A 1.6144056,1.6144056 0 0 0 -67.5,-46.4375 c 0,0 3.931695,1.301049 10.625,1.84375 5.374689,0.435786 11.46875,-0.375 11.46875,-0.375 a 1.6144056,1.6144056 0 1 0 -0.40625,-3.1875 c 0,0 -5.961605,0.737066 -10.8125,0.34375 C -63.013171,-48.330461 -66.5,-49.5 -66.5,-49.5 a 1.6144056,1.6144056 0 0 0 -0.78125,-0.09375 z m 0,-8 A 1.6144056,1.6144056 0 0 0 -67.5,-54.4375 c 0,0 3.931695,1.301049 10.625,1.84375 5.374689,0.435786 11.46875,-0.375 11.46875,-0.375 a 1.6144056,1.6144056 0 1 0 -0.40625,-3.1875 c 0,0 -5.961605,0.737066 -10.8125,0.34375 C -63.013171,-56.330461 -66.5,-57.5 -66.5,-57.5 a 1.6144056,1.6144056 0 0 0 -0.78125,-0.09375 z m 0,-8 A 1.6144056,1.6144056 0 0 0 -67.5,-62.4375 c 0,0 3.931695,1.301049 10.625,1.84375 5.374689,0.435786 11.46875,-0.375 11.46875,-0.375 a 1.6144056,1.6144056 0 1 0 -0.40625,-3.1875 c 0,0 -5.961605,0.737066 -10.8125,0.34375 C -63.013171,-64.330461 -66.5,-65.5 -66.5,-65.5 a 1.6144056,1.6144056 0 0 0 -0.78125,-0.09375 z m -11.207892,-8.437005 c -8.407221,0.05606 -11.539425,2.645057 -11.539425,2.645057 v 62.7837755 c 0,0 3.05858,-2.6415165 12.905554,-2.2381255 9.846974,0.403391 11.878255,3.8552765 23.979914,4.0983855 12.101659,0.243109 15.143679,-1.86026 15.143679,-1.86026 l 0.174399,-64.0045705 c 0,0 -5.446133,1.541392 -16.044742,1.627727 -10.598609,0.08634 -13.146074,-2.696144 -22.875385,-3.022922 -0.608082,-0.02042 -1.183512,-0.0328 -1.743994,-0.02907 z m 7.034109,4.098386 c 0,0 5.094376,1.68402 14.504214,2.150925 7.953019,0.39462 15.928477,-0.784797 15.928477,-0.784797 v 56.883263 c 0,0 -4.036665,2.1158549 -14.12635,1.395195 -7.819331,-0.558499 -16.422608,-3.517054 -16.422608,-3.517054 z m -4.912249,1.482394 a 1.6277275,1.6277275 0 0 1 0,3.255455 c 0,0 -2.634985,0.01353 -4.243719,0.1744 -2.701025,0.270103 -4.534383,1.249862 -4.534383,1.249862 a 1.6251955,1.6251955 0 1 1 -1.511462,-2.87759 c 0,0 2.391605,-1.26521 5.726113,-1.598661 1.926801,-0.192699 4.563451,-0.203466 4.563451,-0.203466 z m -1.569595,8.022372 c 0.899775,-0.02279 1.569595,0 1.569595,0 a 1.625,1.625 0 0 1 0,3.226388 c 0,0 -2.634985,0.01352 -4.243719,0.174399 -2.701025,0.270104 -4.534383,1.249863 -4.534383,1.249863 a 1.6251955,1.6251955 0 0 1 -1.511462,-2.87759 c 0,0 2.391605,-1.26521 5.726113,-1.598661 0.963401,-0.09635 2.094081,-0.151612 2.993856,-0.174399 z m 1.569595,7.993304 a 1.6277275,1.6277275 0 0 1 0,3.255455 c 0,0 -2.634985,-0.01554 -4.243719,0.145333 -2.701025,0.270103 -4.534383,1.249862 -4.534383,1.249862 a 1.6251952,1.6251952 0 0 1 -1.511462,-2.877589 c 0,0 2.391605,-1.265211 5.726113,-1.598661 1.926801,-0.1927 4.563451,-0.1744 4.563451,-0.1744 z"
           style="color:#000000;font-style:normal;font-variant:normal;font-weight:normal;font-stretch:normal;font-size:medium;line-height:normal;font-family:Sans;-inkscape-font-specification:Sans;text-indent:0;text-align:start;text-decoration:none;text-decoration-line:none;letter-spacing:normal;word-spacing:normal;text-transform:none;writing-mode:lr-tb;direction:ltr;baseline-shift:baseline;text-anchor:start;display:inline;overflow:visible;visibility:visible;fill:#000000;fill-opacity:1;stroke:none;stroke-width:3.22848845;marker:none;enable-background:accumulate"
           id="path3929-8" /></g><g
         id="text5298"
         style="font-style:normal;font-variant:normal;font-weight:normal;font-stretch:normal;font-size:32px;line-height:125%;font-family:Bitter;-inkscape-font-specification:Bitter;letter-spacing:-1.99000001px;word-spacing:0px;fill:#000000;fill-opacity:1;stroke:none"
         transform="matrix(0.60813216,0,0,-0.60813216,96.089734,730.41356)"><path
           id="path3912"
           style="font-family:'Bree Serif';-inkscape-font-specification:'Bree Serif Bold';fill:#000000"
           d="m 63.380232,1038.8522 v -2.592 l 1.056,-0.096 c 0.618664,-0.064 0.927997,-0.3627 0.928,-0.896 v -14.88 l -1.824,-0.096 v -2.72 h 8.736 c 2.474654,0 4.373319,0.4587 5.696,1.376 1.322649,0.9173 1.983982,2.4213 1.984,4.512 -1.8e-5,1.4507 -0.384018,2.6453 -1.152,3.584 -0.746683,0.9387 -1.642682,1.6213 -2.688,2.048 0.767985,0.2773 1.375985,0.928 1.824,1.952 l 2.304,5.024 1.824,0.064 v 2.72 h -7.904 v -2.592 l 0.928,-0.096 c 0.490653,-0.064 0.735986,-0.256 0.736,-0.576 -1.4e-5,-0.128 -0.04268,-0.2774 -0.128,-0.448 l -1.504,-3.2 c -0.234679,-0.5334 -0.501345,-0.9067 -0.8,-1.12 -0.277344,-0.2347 -0.682677,-0.352 -1.216,-0.352 h -2.912 v 5.568 l 2.08,0.096 v 2.72 h -7.968 m 5.888,-11.424 h 2.784 c 2.623987,0 3.935986,-1.1733 3.936,-3.52 -1.4e-5,-1.344 -0.352014,-2.2187 -1.056,-2.624 -0.682679,-0.4053 -1.792011,-0.608 -3.328,-0.608 h -2.336 v 6.752"
           inkscape:connector-curvature="0" /><path
           id="path3914"
           style="font-family:'Bree Serif';-inkscape-font-specification:'Bree Serif Bold';fill:#000000"
           d="m 90.310094,1022.2762 c 1.599989,0 2.869321,0.3947 3.808,1.184 0.938652,0.768 1.407985,1.856 1.408,3.264 -1.5e-5,0.9387 -0.202681,1.7706 -0.608,2.496 -0.405347,0.704 -0.90668,1.2586 -1.504,1.664 -0.597345,0.4053 -1.322678,0.736 -2.176,0.992 -1.429342,0.4266 -3.040007,0.64 -4.832,0.64 0.06399,1.1306 0.415994,2.048 1.056,2.752 0.639993,0.6826 1.621325,1.024 2.944,1.024 1.322656,0 2.645321,-0.4694 3.968,-1.408 l 1.216,2.592 c -0.426681,0.384 -1.152014,0.7786 -2.176,1.184 -1.002678,0.4053 -2.154677,0.608 -3.456,0.608 -2.602673,0 -4.512005,-0.7147 -5.728,-2.144 -1.216002,-1.4507 -1.824002,-3.4347 -1.824,-5.952 -2e-6,-2.5174 0.693331,-4.6293 2.08,-6.336 1.386662,-1.7067 3.327993,-2.56 5.824,-2.56 m -1.472,7.328 c 0.789325,-0.1494 1.514657,-0.4587 2.176,-0.928 0.661322,-0.4907 0.991989,-1.0667 0.992,-1.728 -1.1e-5,-1.3013 -0.640011,-1.952 -1.92,-1.952 -1.194675,0 -2.112007,0.48 -2.752,1.44 -0.640006,0.9387 -0.992006,2.0693 -1.056,3.392 0.93866,-0.021 1.791993,-0.096 2.56,-0.224"
           inkscape:connector-curvature="0" /><path
           id="path3916"
           style="font-family:'Bree Serif';-inkscape-font-specification:'Bree Serif Bold';fill:#000000"
           d="m 110.8632,1023.3962 v 11.904 c -1e-5,0.3413 0.0533,0.576 0.16,0.704 0.12799,0.128 0.34132,0.2026 0.64,0.224 l 1.024,0.064 v 2.56 h -5.088 v -1.856 l -0.096,-0.032 c -1.06668,1.536 -2.52801,2.304 -4.384,2.304 -2.176,0 -3.786669,-0.6934 -4.831999,-2.08 -1.045335,-1.3867 -1.568001,-3.2854 -1.568,-5.696 -10e-7,-2.9014 0.703998,-5.1627 2.112,-6.784 1.407999,-1.6213 3.519989,-2.432 6.335999,-2.432 1.81332,0 3.71199,0.3733 5.696,1.12 m -3.712,10.368 v -8.288 c -0.59734,-0.2773 -1.41868,-0.416 -2.464,-0.416 -1.42934,0 -2.46401,0.576 -3.104,1.728 -0.64,1.152 -0.96,2.6773 -0.96,4.576 0,3.456 1.10933,5.184 3.328,5.184 0.93866,0 1.70666,-0.2774 2.304,-0.832 0.59732,-0.576 0.89599,-1.2267 0.896,-1.952"
           inkscape:connector-curvature="0" /><path
           id="path3918"
           style="font-family:'Bree Serif';-inkscape-font-specification:'Bree Serif Bold';fill:#000000"
           d="m 121.12069,1022.2762 c 0.91733,0 1.79199,0.128 2.624,0.384 v -3.232 c -1e-5,-0.4693 -0.27734,-0.7253 -0.832,-0.768 l -1.376,-0.096 v -2.528 h 5.952 v 19.456 c 0.0213,0.4906 0.28799,0.736 0.8,0.736 l 1.12,0.064 v 2.56 h -5.184 v -1.888 l -0.096,-0.032 c -0.96001,1.5573 -2.41067,2.336 -4.352,2.336 -2.432,0 -4.13867,-0.8107 -5.12,-2.432 -0.896,-1.472 -1.344,-3.2747 -1.344,-5.408 0,-2.7734 0.68267,-4.992 2.048,-6.656 1.38666,-1.664 3.30666,-2.496 5.76,-2.496 m 2.624,11.584 v -8.288 c -0.76801,-0.3413 -1.57867,-0.512 -2.432,-0.512 -1.40801,0 -2.44267,0.5653 -3.104,1.696 -0.64,1.1307 -0.96,2.5706 -0.96,4.32 0,3.584 1.152,5.376 3.456,5.376 0.87466,0 1.59999,-0.2454 2.176,-0.736 0.57599,-0.512 0.86399,-1.1307 0.864,-1.856"
           inkscape:connector-curvature="0" /><path
           id="path3920"
           style="font-style:italic;font-weight:normal;font-size:28px;font-family:Bitter;-inkscape-font-specification:'Bitter Italic';fill:#000000"
           d="m 141.89219,1036.3322 c 0,0 -1.484,0.56 -2.268,0.56 -0.784,0 -1.092,-0.392 -1.092,-1.4 0,-0.448 0.056,-1.036 0.168,-1.764 l 1.204,-7.476 h 3.864 l 0.336,-2.1 h -3.864 l 0.672,-4.088 -2.772,0.56 -0.56,3.528 -2.8,0.28 -0.308,1.82 h 2.772 l -1.232,7.756 c -0.112,0.644 -0.168,1.26 -0.168,1.792 0,2.212 0.924,3.332 2.828,3.332 1.568,0 3.668,-1.288 3.668,-1.288 l -0.448,-1.512"
           inkscape:connector-curvature="0" /><path
           id="path3922"
           style="font-style:italic;font-weight:normal;font-size:28px;font-family:Bitter;-inkscape-font-specification:'Bitter Italic';fill:#000000"
           d="m 150.57225,1017.2922 -5.124,0.14 -0.252,1.54 2.352,0.56 -3.08,19.32 h 2.66 l 0.924,-5.04 c 0,0 2.212,-7.7 5.852,-7.7 1.11999,0 1.456,0.812 1.456,1.848 0,0.392 -0.056,0.812 -0.112,1.232 l -1.596,9.66 5.124,-0.28 0.252,-1.54 -2.352,-0.42 1.26,-7.84 c 0.084,-0.588 0.14,-1.148 0.14,-1.652 0,-2.016 -0.81201,-3.388 -3.052,-3.388 -4.256,0 -6.496,5.404 -6.608,5.712 l 2.156,-12.152"
           inkscape:connector-curvature="0" /><path
           id="path3924"
           style="font-style:italic;font-weight:normal;font-size:28px;font-family:Bitter;-inkscape-font-specification:'Bitter Italic';fill:#000000"
           d="m 170.69755,1035.6322 c 0,0 -2.548,1.26 -4.592,1.26 -2.1,0 -3.08,-0.924 -3.08,-2.912 0,-0.364 0.028,-0.784 0.084,-1.204 5.796,0 9.828,-2.184 9.828,-5.404 0,-2.212 -1.792,-3.64 -4.62,-3.64 -4.45199,0 -8.092,4.564 -8.092,10.36 0,3.08 1.96,5.04 5.04,5.04 3.304,0 6.272,-2.072 6.272,-2.072 l -0.84,-1.428 m -7.336,-4.816 c 0.728,-2.94 2.772,-4.984 4.816,-4.984 1.428,0 2.1,0.588 2.1,1.82 0,1.848 -2.94,3.164 -6.916,3.164"
           inkscape:connector-curvature="0" /><path
           id="path3926"
           style="font-family:'Bree Serif';-inkscape-font-specification:'Bree Serif Bold';fill:#000000"
           d="m 177.64305,1038.8522 v -2.592 l 1.056,-0.096 c 0.61867,-0.064 0.928,-0.3627 0.928,-0.896 v -14.88 l -1.824,-0.096 v -2.72 h 8.768 c 3.13599,0 5.57865,0.832 7.328,2.496 1.77065,1.664 2.65598,4.128 2.656,7.392 -2e-5,2.0266 -0.26668,3.7973 -0.8,5.312 -0.53335,1.4933 -1.25868,2.6666 -2.176,3.52 -1.83468,1.7066 -4.11734,2.56 -6.848,2.56 h -9.088 m 5.888,-18.176 v 15.104 h 3.264 c 1.83466,0 3.26399,-0.6614 4.288,-1.984 1.02399,-1.3227 1.53599,-3.2427 1.536,-5.76 -10e-6,-4.9067 -2.08001,-7.36 -6.24,-7.36 h -2.848"
           inkscape:connector-curvature="0" /><path
           id="path3928"
           style="font-family:'Bree Serif';-inkscape-font-specification:'Bree Serif Bold';fill:#000000"
           d="m 205.62659,1036.5162 c 2.32532,0 3.48798,-1.8774 3.488,-5.632 -2e-5,-1.8987 -0.26668,-3.3387 -0.8,-4.32 -0.51201,-0.9813 -1.38668,-1.472 -2.624,-1.472 -1.21601,0 -2.11201,0.4693 -2.688,1.408 -0.57601,0.9387 -0.86401,2.2186 -0.864,3.84 -1e-5,3.008 0.55466,4.896 1.664,5.664 0.49066,0.3413 1.09866,0.512 1.824,0.512 m -7.36,-5.728 c 0,-1.5787 0.23466,-2.944 0.704,-4.096 0.46933,-1.1733 1.09866,-2.0693 1.888,-2.688 1.51466,-1.152 3.18932,-1.728 5.024,-1.728 1.27999,0 2.35732,0.2133 3.232,0.64 0.89598,0.4053 1.58932,0.8853 2.08,1.44 0.51198,0.5333 0.93865,1.3227 1.28,2.368 0.36265,1.024 0.54398,2.24 0.544,3.648 -2e-5,2.944 -0.71469,5.1733 -2.144,6.688 -1.42935,1.5146 -3.26401,2.272 -5.504,2.272 -2.21868,0 -3.95734,-0.7147 -5.216,-2.144 -1.25867,-1.4507 -1.888,-3.584 -1.888,-6.4"
           inkscape:connector-curvature="0" /><path
           id="path3930"
           style="font-family:'Bree Serif';-inkscape-font-specification:'Bree Serif Bold';fill:#000000"
           d="m 218.42846,1030.6282 c -1e-5,1.8133 0.34133,3.2213 1.024,4.224 0.68266,1.0026 1.66399,1.504 2.944,1.504 1.30132,0 2.58132,-0.4587 3.84,-1.376 l 1.376,2.464 c -1.51468,1.2373 -3.41335,1.856 -5.696,1.856 -2.28268,0 -4.08534,-0.7147 -5.408,-2.144 -1.30134,-1.4507 -1.952,-3.584 -1.952,-6.4 0,-2.816 0.74666,-4.928 2.24,-6.336 1.51466,-1.4293 3.21066,-2.144 5.088,-2.144 1.89865,0 3.65865,0.4373 5.28,1.312 v 4.16 l -2.944,0.224 v -1.536 c -1e-5,-0.576 -0.21335,-0.928 -0.64,-1.056 -0.40535,-0.1493 -0.83201,-0.224 -1.28,-0.224 -2.58134,0 -3.87201,1.824 -3.872,5.472"
           inkscape:connector-curvature="0" /><path
           id="path3932"
           style="font-family:'Bree Serif';-inkscape-font-specification:'Bree Serif Bold';fill:#000000"
           d="m 236.74521,1025.1882 c -0.51201,-0.192 -1.13068,-0.288 -1.856,-0.288 -0.72534,0 -1.31201,0.1707 -1.76,0.512 -0.42668,0.32 -0.64001,0.7253 -0.64,1.216 -1e-5,0.4693 0.0747,0.8427 0.224,1.12 0.17066,0.256 0.42666,0.48 0.768,0.672 0.53332,0.2773 1.17332,0.5226 1.92,0.736 0.74665,0.192 1.30132,0.352 1.664,0.48 0.36265,0.1066 0.81065,0.2986 1.344,0.576 0.55465,0.2773 0.97065,0.576 1.248,0.896 0.74665,0.7893 1.11998,1.8026 1.12,3.04 -2e-5,1.6 -0.58668,2.8586 -1.76,3.776 -1.15201,0.896 -2.62401,1.344 -4.416,1.344 -2.60268,0 -4.56534,-0.3307 -5.888,-0.992 v -4.448 l 2.88,-0.224 v 1.536 c -1e-5,0.9386 0.89599,1.408 2.688,1.408 1.79199,0 2.68799,-0.6507 2.688,-1.952 -1e-5,-0.4694 -0.16001,-0.8534 -0.48,-1.152 -0.29868,-0.2987 -0.59735,-0.5014 -0.896,-0.608 -0.29868,-0.1067 -0.66134,-0.2134 -1.088,-0.32 -0.40534,-0.1067 -0.81068,-0.2134 -1.216,-0.32 -0.38401,-0.1067 -0.81068,-0.2454 -1.28,-0.416 -0.44801,-0.192 -0.94934,-0.4587 -1.504,-0.8 -1.08801,-0.704 -1.63201,-1.8774 -1.632,-3.52 -1e-5,-1.664 0.58666,-2.944 1.76,-3.84 1.17333,-0.896 2.64532,-1.344 4.416,-1.344 1.79199,0 3.56265,0.4267 5.312,1.28 v 3.84 l -2.88,0.224 v -1.344 c -1e-5,-0.5333 -0.24535,-0.896 -0.736,-1.088"
           inkscape:connector-curvature="0" /></g></g></g><g
     inkscape:groupmode="layer"
     id="layer1"
     inkscape:label="From"
     transform="translate(-62.414599,-145.61014)"><text
       xml:space="preserve"
       style="font-style:normal;font-weight:normal;font-size:21.59999847px;line-height:1.25;font-family:sans-serif;letter-spacing:0px;word-spacing:0px;fill:#000000;fill-opacity:1;stroke:none;stroke-width:0.54000002"
       x="61.918896"
       y="253.25969"
       id="text4262"><tspan
         sodipodi:role="line"
         id="tspan4260"
         x="61.918896"
         y="253.25969"
         style="stroke-width:0.54000002">from</tspan></text>
</g></svg>